<svg width="32" height="32" viewBox="0 0 32 32" xmlns="http://www.w3.org/2000/svg">
  <path d="M10 7c-1.1 0-2 .9-2 2v9.5l-1.5-2C5.8 15.4 4 16 4 18c0 1 .5 2 1 2.8l4.2 6.4c.6 1 1.8 1.8 3.1 1.8h5c1.7 0 3.2-1.1 3.6-2.8l2.1-8.4c.5-2-2-3-2-3v-7c0-1.1-.9-2-2-2s-2 .9-2 2v5" fill="#e7edf7" stroke="#1f2d3d" stroke-width="2" stroke-linejoin="round"/>
  <path d="M14 6.5c-1.1 0-2 .9-2 2v5" stroke="#1f2d3d" stroke-width="2" stroke-linecap="round"/>
  <path d="M18 7.5c-1.1 0-2 .9-2 2v4" stroke="#1f2d3d" stroke-width="2" stroke-linecap="round"/>
</svg>
